<svg width="25" height="25" viewBox="0 0 25 25" fill="none" xmlns="http://www.w3.org/2000/svg">
<path d="M21.2806 13.0307L14.5306 19.7807C14.3899 19.9214 14.199 20.0005 14 20.0005C13.801 20.0005 13.6101 19.9214 13.4694 19.7807C13.3286 19.6399 13.2496 19.4491 13.2496 19.2501C13.2496 19.051 13.3286 18.8602 13.4694 18.7194L18.9397 13.2501H4.25C4.05109 13.2501 3.86032 13.171 3.71967 13.0304C3.57902 12.8897 3.5 12.699 3.5 12.5001C3.5 12.3011 3.57902 12.1104 3.71967 11.9697C3.86032 11.8291 4.05109 11.7501 4.25 11.7501H18.9397L13.4694 6.28068C13.3286 6.13995 13.2496 5.94907 13.2496 5.75005C13.2496 5.55103 13.3286 5.36016 13.4694 5.21943C13.6101 5.0787 13.801 4.99963 14 4.99963C14.199 4.99963 14.3899 5.0787 14.5306 5.21943L21.2806 11.9694C21.3504 12.0391 21.4057 12.1218 21.4434 12.2128C21.4812 12.3039 21.5006 12.4015 21.5006 12.5001C21.5006 12.5986 21.4812 12.6962 21.4434 12.7873C21.4057 12.8783 21.3504 12.961 21.2806 13.0307Z" fill="black"/>
</svg>
