<svg width="24" height="24" viewBox="0 0 24 24" fill="none" xmlns="http://www.w3.org/2000/svg">
<path d="M3.21938 12.5307L9.96937 19.2807C10.1101 19.4214 10.301 19.5005 10.5 19.5005C10.699 19.5005 10.8899 19.4214 11.0306 19.2807C11.1714 19.1399 11.2504 18.9491 11.2504 18.7501C11.2504 18.551 11.1714 18.3602 11.0306 18.2194L5.56031 12.7501H20.25C20.4489 12.7501 20.6397 12.671 20.7803 12.5304C20.921 12.3897 21 12.199 21 12.0001C21 11.8011 20.921 11.6104 20.7803 11.4697C20.6397 11.3291 20.4489 11.2501 20.25 11.2501H5.56031L11.0306 5.78068C11.1714 5.63995 11.2504 5.44907 11.2504 5.25005C11.2504 5.05103 11.1714 4.86016 11.0306 4.71943C10.8899 4.5787 10.699 4.49963 10.5 4.49963C10.301 4.49963 10.1101 4.5787 9.96937 4.71943L3.21938 11.4694C3.14964 11.5391 3.09432 11.6218 3.05658 11.7128C3.01884 11.8039 2.99941 11.9015 2.99941 12.0001C2.99941 12.0986 3.01884 12.1962 3.05658 12.2873C3.09432 12.3783 3.14964 12.461 3.21938 12.5307Z" fill="white"/>
</svg>
