<svg width="25" height="25" viewBox="0 0 25 25" fill="none" xmlns="http://www.w3.org/2000/svg">
<path d="M18.5 14.7502V10.2502C18.5 10.0513 18.579 9.86049 18.7197 9.71984C18.8603 9.57919 19.0511 9.50017 19.25 9.50017C19.4489 9.50017 19.6397 9.57919 19.7803 9.71984C19.921 9.86049 20 10.0513 20 10.2502V14.7502C20 14.9491 19.921 15.1398 19.7803 15.2805C19.6397 15.4212 19.4489 15.5002 19.25 15.5002C19.0511 15.5002 18.8603 15.4212 18.7197 15.2805C18.579 15.1398 18.5 14.9491 18.5 14.7502ZM22.25 8.00017C22.0511 8.00017 21.8603 8.07919 21.7197 8.21984C21.579 8.36049 21.5 8.55126 21.5 8.75017V16.2502C21.5 16.4491 21.579 16.6398 21.7197 16.7805C21.8603 16.9212 22.0511 17.0002 22.25 17.0002C22.4489 17.0002 22.6397 16.9212 22.7803 16.7805C22.921 16.6398 23 16.4491 23 16.2502V8.75017C23 8.55126 22.921 8.36049 22.7803 8.21984C22.6397 8.07919 22.4489 8.00017 22.25 8.00017ZM21.305 20.2458C21.3726 20.3184 21.4252 20.4038 21.4596 20.4969C21.494 20.59 21.5095 20.689 21.5054 20.7881C21.5013 20.8873 21.4775 20.9846 21.4354 21.0745C21.3934 21.1645 21.3339 21.2451 21.2605 21.3119C21.187 21.3786 21.101 21.4301 21.0075 21.4634C20.914 21.4967 20.8149 21.5111 20.7158 21.5057C20.6167 21.5004 20.5196 21.4755 20.4302 21.4323C20.3408 21.3892 20.2609 21.3288 20.195 21.2545L16.25 16.9149V21.5002C16.2499 21.6405 16.2104 21.778 16.1361 21.897C16.0617 22.016 15.9554 22.1118 15.8293 22.1734C15.7033 22.2351 15.5624 22.2601 15.4228 22.2456C15.2832 22.2312 15.1505 22.1779 15.0397 22.0917L8.49219 17.0002H4.25C3.85218 17.0002 3.47064 16.8421 3.18934 16.5608C2.90804 16.2795 2.75 15.898 2.75 15.5002V9.50017C2.75 9.10234 2.90804 8.72081 3.18934 8.43951C3.47064 8.15821 3.85218 8.00017 4.25 8.00017H8.14531L5.195 4.75455C5.06403 4.60691 4.99653 4.4136 5.00713 4.21653C5.01773 4.01946 5.10558 3.83452 5.25164 3.70179C5.39769 3.56905 5.59017 3.49924 5.78736 3.50748C5.98454 3.51572 6.17053 3.60134 6.305 3.7458L21.305 20.2458ZM14.75 15.2649L9.50937 9.50017H4.25V15.5002H8.75C8.91686 15.4999 9.07897 15.5557 9.21031 15.6586L14.75 19.9664V15.2649ZM12.2244 6.99798L14.75 5.02923V10.5108C14.75 10.7097 14.829 10.9005 14.9697 11.0411C15.1103 11.1818 15.3011 11.2608 15.5 11.2608C15.6989 11.2608 15.8897 11.1818 16.0303 11.0411C16.171 10.9005 16.25 10.7097 16.25 10.5108V3.50017C16.2499 3.35983 16.2104 3.22234 16.1361 3.10332C16.0617 2.9843 15.9554 2.88854 15.8293 2.82691C15.7033 2.76529 15.5624 2.74027 15.4228 2.75471C15.2832 2.76916 15.1505 2.82247 15.0397 2.90861L11.3038 5.81486C11.1499 5.93801 11.0507 6.11677 11.0276 6.3125C11.0045 6.50823 11.0593 6.70518 11.1803 6.86077C11.3013 7.01636 11.4786 7.11808 11.674 7.14393C11.8694 7.16978 12.0671 7.11769 12.2244 6.99892V6.99798Z" fill="black"/>
</svg>
