<svg width="25" height="25" viewBox="0 0 25 25" fill="none" xmlns="http://www.w3.org/2000/svg">
<path d="M19.25 3.5H15.5C15.1022 3.5 14.7206 3.65804 14.4393 3.93934C14.158 4.22064 14 4.60218 14 5V20C14 20.3978 14.158 20.7794 14.4393 21.0607C14.7206 21.342 15.1022 21.5 15.5 21.5H19.25C19.6478 21.5 20.0294 21.342 20.3107 21.0607C20.592 20.7794 20.75 20.3978 20.75 20V5C20.75 4.60218 20.592 4.22064 20.3107 3.93934C20.0294 3.65804 19.6478 3.5 19.25 3.5ZM19.25 20H15.5V5H19.25V20ZM9.5 3.5H5.75C5.35218 3.5 4.97064 3.65804 4.68934 3.93934C4.40804 4.22064 4.25 4.60218 4.25 5V20C4.25 20.3978 4.40804 20.7794 4.68934 21.0607C4.97064 21.342 5.35218 21.5 5.75 21.5H9.5C9.89782 21.5 10.2794 21.342 10.5607 21.0607C10.842 20.7794 11 20.3978 11 20V5C11 4.60218 10.842 4.22064 10.5607 3.93934C10.2794 3.65804 9.89782 3.5 9.5 3.5ZM9.5 20H5.75V5H9.5V20Z" fill="white"/>
</svg>
