<svg width="25" height="25" viewBox="0 0 25 25" fill="none" xmlns="http://www.w3.org/2000/svg">
<path d="M22.2875 11.2332L8.78 2.97005C8.55227 2.8306 8.29144 2.75447 8.02445 2.74952C7.75746 2.74458 7.49399 2.811 7.26125 2.94192C7.03073 3.07081 6.8387 3.25878 6.7049 3.48649C6.57111 3.7142 6.50039 3.97344 6.5 4.23755V20.7619C6.50174 21.1581 6.66072 21.5374 6.942 21.8164C7.22328 22.0953 7.60383 22.2512 8 22.2497C8.27652 22.2496 8.54767 22.1734 8.78375 22.0294L22.2875 13.7663C22.5046 13.634 22.684 13.4481 22.8084 13.2265C22.9329 13.0048 22.9983 12.7549 22.9983 12.5007C22.9983 12.2465 22.9329 11.9965 22.8084 11.7749C22.684 11.5533 22.5046 11.3673 22.2875 11.235V11.2332ZM8 20.7441V4.24974L21.4841 12.4997L8 20.7441Z" fill="white"/>
</svg>
