<svg width="25" height="25" viewBox="0 0 25 25" fill="none" xmlns="http://www.w3.org/2000/svg">
<path d="M21.5 12.5001C21.5002 14.8663 20.5686 17.1373 18.9069 18.8217C17.2451 20.5061 14.9869 21.4683 12.6209 21.5001H12.5C10.2015 21.5059 7.98901 20.6263 6.32187 19.0439C6.25028 18.9762 6.19273 18.895 6.1525 18.8051C6.11227 18.7151 6.09016 18.6181 6.08741 18.5196C6.08467 18.4211 6.10136 18.323 6.13652 18.231C6.17168 18.1389 6.22463 18.0547 6.29234 17.9831C6.36006 17.9115 6.44121 17.854 6.53116 17.8137C6.62112 17.7735 6.71812 17.7514 6.81662 17.7486C6.91512 17.7459 7.0132 17.7626 7.10525 17.7977C7.19731 17.8329 7.28153 17.8859 7.35312 17.9536C8.42544 18.9648 9.77195 19.6377 11.2245 19.8882C12.677 20.1386 14.1711 19.9555 15.5202 19.3618C16.8692 18.768 18.0134 17.7899 18.8098 16.5496C19.6062 15.3094 20.0195 13.8619 19.9981 12.3881C19.9766 10.9144 19.5214 9.47955 18.6892 8.26297C17.8571 7.0464 16.6849 6.10199 15.3192 5.54773C13.9534 4.99346 12.4546 4.85392 11.01 5.14652C9.56537 5.43912 8.239 6.15091 7.19656 7.19295C7.1889 7.20123 7.18076 7.20906 7.17219 7.21638L4.68031 9.50013H7.25C7.44891 9.50013 7.63968 9.57915 7.78033 9.7198C7.92098 9.86046 8 10.0512 8 10.2501C8 10.449 7.92098 10.6398 7.78033 10.7805C7.63968 10.9211 7.44891 11.0001 7.25 11.0001H2.75C2.55109 11.0001 2.36032 10.9211 2.21967 10.7805C2.07902 10.6398 2 10.449 2 10.2501V5.75013C2 5.55122 2.07902 5.36046 2.21967 5.2198C2.36032 5.07915 2.55109 5.00013 2.75 5.00013C2.94891 5.00013 3.13968 5.07915 3.28033 5.2198C3.42098 5.36046 3.5 5.55122 3.5 5.75013V8.54388L6.14844 6.12513C7.40842 4.87005 9.012 4.01638 10.7567 3.67191C12.5015 3.32744 14.3092 3.5076 15.9516 4.18965C17.5941 4.8717 18.9976 6.02507 19.9851 7.50415C20.9726 8.98322 21.4997 10.7217 21.5 12.5001Z" fill="black"/>
</svg>
