<svg width="25" height="25" viewBox="0 0 25 25" fill="none" xmlns="http://www.w3.org/2000/svg">
<path d="M15.0791 2.82579C14.9529 2.76433 14.8121 2.73948 14.6726 2.75406C14.533 2.76865 14.4004 2.82208 14.2897 2.90829L7.74219 7.99985H3.5C3.10218 7.99985 2.72064 8.15788 2.43934 8.43919C2.15804 8.72049 2 9.10202 2 9.49985V15.4998C2 15.8977 2.15804 16.2792 2.43934 16.5605C2.72064 16.8418 3.10218 16.9998 3.5 16.9998H7.74219L14.2897 22.0914C14.4005 22.1775 14.5332 22.2309 14.6728 22.2453C14.8124 22.2597 14.9533 22.2347 15.0793 22.1731C15.2054 22.1115 15.3117 22.0157 15.3861 21.8967C15.4604 21.7777 15.4999 21.6402 15.5 21.4998V3.49985C15.5 3.35934 15.4606 3.22166 15.3861 3.10248C15.3117 2.98331 15.2053 2.88743 15.0791 2.82579ZM3.5 9.49985H7.25V15.4998H3.5V9.49985ZM14 19.9661L8.75 15.8833V9.11641L14 5.0336V19.9661ZM19.0625 10.0211C19.6657 10.7059 19.9986 11.5872 19.9986 12.4998C19.9986 13.4125 19.6657 14.2938 19.0625 14.9786C18.93 15.1242 18.7456 15.2119 18.549 15.2227C18.3524 15.2335 18.1595 15.1666 18.0118 15.0364C17.8642 14.9062 17.7736 14.7231 17.7597 14.5268C17.7458 14.3304 17.8097 14.1364 17.9375 13.9867C18.2992 13.5759 18.4988 13.0473 18.4988 12.4998C18.4988 11.9524 18.2992 11.4238 17.9375 11.013C17.8097 10.8633 17.7458 10.6693 17.7597 10.4729C17.7736 10.2766 17.8642 10.0935 18.0118 9.96333C18.1595 9.83314 18.3524 9.76623 18.549 9.77703C18.7456 9.78784 18.93 9.8755 19.0625 10.0211ZM23.75 12.4998C23.7511 14.345 23.0711 16.1257 21.8403 17.5005C21.7067 17.645 21.5216 17.7313 21.325 17.7406C21.1284 17.7499 20.936 17.6815 20.7893 17.5503C20.6426 17.419 20.5535 17.2353 20.541 17.0388C20.5286 16.8424 20.5939 16.6489 20.7228 16.5002C21.7066 15.4001 22.2505 13.9761 22.2505 12.5003C22.2505 11.0245 21.7066 9.6005 20.7228 8.50047C20.6553 8.4274 20.603 8.34163 20.5689 8.24815C20.5349 8.15466 20.5197 8.05533 20.5245 7.95595C20.5292 7.85657 20.5536 7.75911 20.5963 7.66926C20.6391 7.57942 20.6993 7.49897 20.7734 7.43261C20.8475 7.36625 20.9341 7.31531 21.0281 7.28274C21.1222 7.25018 21.2217 7.23665 21.321 7.24293C21.4203 7.24922 21.5173 7.2752 21.6065 7.31936C21.6957 7.36352 21.7751 7.42498 21.8403 7.50016C23.0714 8.87436 23.7515 10.6549 23.75 12.4998Z" fill="black"/>
</svg>
